<svg xmlns="http://www.w3.org/2000/svg" xml:space="preserve" width="2048" height="2048" style="shape-rendering:geometricPrecision;text-rendering:geometricPrecision;image-rendering:optimizeQuality;fill-rule:evenodd;clip-rule:evenodd"><defs><clipPath id="id0"><path d="M1024-.001c565.539 0 1024 458.462 1024 1024 0 565.539-458.462 1024-1024 1024-565.539 0-1024-458.462-1024-1024 0-565.54 458.462-1024 1024-1024z"/></clipPath><style>.fil1{fill:#43a047}.fil6{fill:#d6cbb7}</style></defs><g id="Layer_x0020_1"><path d="M1024-.001c565.539 0 1024 458.462 1024 1024 0 565.539-458.462 1024-1024 1024-565.539 0-1024-458.462-1024-1024 0-565.54 458.462-1024 1024-1024z" style="fill:#66bb6a"/><g style="clip-path:url(#id0)"><g id="_289369256"><path id="_3062944081" class="fil1" d="M1205.25 555.427 2341.13 1691.31l-.04 7.11L1205.2 562.538z"/><path id="_306294456" class="fil1" d="M1205.7 488.227 2341.58 1624.11l-.45 67.2L1205.25 555.427z"/><path id="_306294552" class="fil1" d="m1470.53 796.37 1135.88 1135.88-.15-.15L1470.38 796.22z"/><path id="_306295152" class="fil1" d="M1470.53 796.22 2606.41 1932.1v.15L1470.53 796.37z"/><path id="_306294744" class="fil1" d="M1205.58 562.875 2341.46 1698.76l-13.46 2.46-13.39 2.13-13.32 1.82-13.25 1.53-13.2 1.25-13.14 1-13.09.75-13.04.52-13.01.31-12.97.11-12.94-.07-12.92-.22-12.89-.38-12.89-.51-12.87-.62-12.87-.72-12.87-.8-12.87-.87-12.89-.91-12.9-.96-12.92-.96-12.95-.97-12.97-.95-13.02-.93-13.05-.87-13.1-.81-13.15-.73-13.2-.63-13.27-.53-13.33-.39-13.4-.24-13.48-.09L786.961 560.596l13.476.087 13.402.247 13.331.392 13.265.522 13.205.633 13.149.73 13.1.81 13.052.874 13.014.922 12.976.954 12.948.968 12.921.967 12.9.951 12.886.917 12.874.868 12.869.802 12.871.719 12.87.621 12.88.507 12.9.376 12.92.229 12.94.066 12.97-.113 13.01-.31 13.04-.521 13.09-.749 13.14-.993 13.2-1.253 13.25-1.531 13.32-1.823 13.38-2.132z"/><path id="_306295032" class="fil1" d="m1201.35 474.7 1135.88 1135.88.78 1.02.7 1.06.61 1.1.54 1.15.47 1.19.39 1.23.31 1.27.24 1.32.17 1.35.11 1.4.03 1.44L1205.7 488.227l-.03-1.438-.11-1.397-.17-1.357-.24-1.315-.31-1.273-.39-1.232-.47-1.189-.54-1.146-.62-1.104-.69-1.061z"/><path id="_306294888" class="fil1" d="M1361.7 796.434 2497.58 1932.32l108.68-.22L1470.38 796.22z"/><path id="_306294960" class="fil1" d="M1470.59 796.434 2606.48 1932.32h-.07L1470.53 796.434z"/><path id="_306295896" class="fil1" d="M1229.55 796.434 2365.43 1932.32h132.15L1361.7 796.434z"/><path id="_306295920" class="fil1" d="M786.961 560.596 1922.84 1696.48l-2.36.05-2.34.14-2.3.23-2.27.33-2.24.41-2.2.5-2.15.58-2.12.66-2.07.74-2.02.82-1.96.9-1.92.97-1.86 1.04-1.8 1.1-1.75 1.18-1.68 1.23-1.61 1.3-1.55 1.36-1.47 1.42-1.4 1.48-1.33 1.52-1.25 1.58-1.17 1.63-1.09 1.68-1 1.72-.92 1.77-.82 1.8-.73 1.84-.64 1.89-.54 1.91-.44 1.95-.33 1.97L737.625 598.302l.337-1.977.439-1.948.54-1.914.636-1.882.731-1.844.825-1.804.915-1.765 1.002-1.721 1.086-1.676 1.171-1.628 1.249-1.581 1.328-1.527 1.403-1.474 1.475-1.418 1.546-1.361 1.615-1.3 1.68-1.238 1.742-1.174 1.802-1.107 1.86-1.038 1.917-.969 1.969-.894 2.02-.819 2.068-.743 2.114-.663 2.157-.581 2.197-.498 2.235-.413 2.272-.324 2.305-.234 2.335-.142z"/><path id="_306295848" class="fil1" d="M737.625 598.302 1873.51 1734.18l-.09.66-.08.66-.06.67-.06.66-.04.67-.03.67-.02.68v.67L737.246 603.642l.006-.677.017-.674.031-.672.042-.669.053-.666.065-.664.076-.66z"/><path id="_306295680" class="fil1" d="M737.246 603.642 1873.13 1739.52l-.01 26.9-.02 26.91-.04 26.92-.04 26.94-.06 26.96-.07 26.99-.07 27.02-.09 27.06-.09 27.1-.1 27.15-.11 27.21-.11 27.25-.11 27.33-.12 27.38-.11 27.46-.12 27.53-.12 27.62-.12 27.7-.11 27.79-.12 27.89-.11 27.98-.1 28.1-.1 28.2-.09 28.31-.09 28.44-.08 28.56-.06 28.69-.06 28.82-.05 28.96-.03 29.11-.02 29.25-.01 29.41L734.708 1492.57l.007-29.4.021-29.26.034-29.1.046-28.96.058-28.83.068-28.68.077-28.56.086-28.44.092-28.32.099-28.2.105-28.09.11-27.99.113-27.88.116-27.79.118-27.7.118-27.62.119-27.53.119-27.461.115-27.386.114-27.321.11-27.258.105-27.202.099-27.15.092-27.102.085-27.061.078-27.022.067-26.99.058-26.962.046-26.938.034-26.92.022-26.907z"/><path id="_306295728" class="fil1" d="M734.708 1492.57 1870.59 2628.46h-169.14L565.57 1492.57z"/><path id="_306295608" class="fil1" d="m565.57 1492.57 1135.88 1135.89-2.54-.12-2.47-.35-2.38-.56-2.28-.77-2.18-.96-2.05-1.15-1.91-1.31L549.758 1487.35l1.913 1.32 2.05 1.14 2.174.97 2.283.77 2.382.56 2.468.35z"/><path id="_289369376" class="fil1" d="m1229.52 784.522.026 11.913h132.151l108.68-.215-240.858-240.858v229.16zm241.008 11.848-.15-.15h.15v.15zm0 .065v-.065l.065.065h-.065zM565.569 463.999h598.306c30.43 0 41.823 8.675 41.823 24.228l-.447 67.2-.047 7.111.372.337c-144.013 28.01-274.44-2.279-418.616-2.279-25.36 0-46.297 16.459-49.336 37.706-.25 1.75-.379 3.531-.379 5.34 0 286.884-2.538 574.43-2.538 888.93H565.569c-13.73 0-24.859-10.234-24.859-22.857v-982.86c0-12.623 11.13-22.857 24.859-22.857z"/></g></g><path d="M1024-.001c565.539 0 1024 458.462 1024 1024 0 565.539-458.462 1024-1024 1024-565.539 0-1024-458.462-1024-1024 0-565.54 458.462-1024 1024-1024z" style="fill:none"/><path d="M737.246 603.642c0-23.765 22.267-43.045 49.716-43.045 144.174 0 274.602 30.288 418.615 2.278l-.372-.337.493-74.311c0-15.553-11.392-24.228-41.822-24.228H565.57c-13.73 0-24.859 10.234-24.859 22.858v982.859c0 12.623 11.13 22.858 24.859 22.858h169.138c0-314.501 2.538-602.047 2.538-888.931z" style="fill:#dacab1;fill-rule:nonzero"/><path d="M760.482 555.427h468.551l.515 241.269 240.982-.476v764.924c0 12.624-10.234 22.858-22.858 22.858h-687.19c-12.624 0-22.857-10.234-22.857-22.858V578.285c0-12.624 10.233-22.858 22.857-22.858z" style="fill:#fee8cd"/><path style="fill:#c9b8a6" d="m1229.52 555.362 241.07 241.072h-241.07z"/><path class="fil6" d="M853.312 829.713h287.898v45.716H853.312zM853.312 1058.28h501.528V1104H853.312zM853.312 1172.57h501.528v45.71H853.312zM853.312 1286.85h501.528v45.72H853.312zM853.312 1401.14h501.528v45.72H853.312zM853.312 943.998h501.528v45.716H853.312z"/></g></svg>
